<?xml version="1.0" encoding="UTF-8"?>
<svg width="37px" height="40px" viewBox="0 0 37 40" version="1.1" xmlns="http://www.w3.org/2000/svg" xmlns:xlink="http://www.w3.org/1999/xlink">
    <!-- Generator: Sketch 50.2 (55047) - http://www.bohemiancoding.com/sketch -->
    <title>btn_home_jdy</title>
    <desc>Created with Sketch.</desc>
    <defs></defs>
    <g id="Page-1" stroke="none" stroke-width="1" fill="none" fill-rule="evenodd">
        <g id="首页" transform="translate(-1256.000000, -96.000000)" fill="#FFFFFF">
            <g id="btn_home_jdy" transform="translate(1253.000000, 96.000000)">
                <g id="待确认" transform="translate(3.000000, 0.000000)">
                    <path d="M3.13461513,39.3444475 C1.40606702,39.3444475 0,37.9334945 0,36.1989398 L0,3.14569277 C0,1.41113812 1.40606702,0.000185149469 3.13461513,0.000185149469 L30.9637455,0.000185149469 C32.6922937,0.000185149469 34.0983607,1.41113812 34.0983607,3.14569277 L34.0983607,13.930089 C34.0983607,14.5289381 33.614639,15.0149606 33.0172459,15.0149606 C32.4198527,15.0149606 31.936131,14.5289381 31.936131,13.930089 L31.936131,3.14569277 C31.936131,2.60759648 31.4999784,2.16992829 30.9637455,2.16992829 L3.13461513,2.16992829 C2.59838219,2.16992829 2.16222959,2.60759648 2.16222959,3.14569277 L2.16222959,36.1989398 C2.16222959,36.7370361 2.59838219,37.1747043 3.13461513,37.1747043 L15.3930966,37.1747043 C15.9904897,37.1747043 16.4742114,37.6601068 16.4742114,38.2595759 C16.4742114,38.8590449 15.9904897,39.3444475 15.3930966,39.3444475 L3.13461513,39.3444475 Z" id="Path"></path>
                    <path d="M24.93525,9.39428571 C25.48725,9.39428571 25.91925,8.98285714 25.91925,8.45714286 C25.91925,7.93142857 25.48725,7.52 24.93525,7.52 L6.57525,7.52 C6.02325,7.52 5.59125,7.93142857 5.59125,8.45714286 C5.59125,8.98285714 6.02325,9.39428571 6.57525,9.39428571 L24.93525,9.39428571 Z M24.93525,16.2514286 C25.48725,16.2514286 25.91925,15.84 25.91925,15.3142857 C25.91925,14.7885714 25.48725,14.3771429 24.93525,14.3771429 L6.57525,14.3771429 C6.02325,14.3771429 5.59125,14.7885714 5.59125,15.3142857 C5.59125,15.84 6.02325,16.2514286 6.57525,16.2514286 L24.93525,16.2514286 Z M17.06325,23.1314286 C17.61525,23.1314286 18.04725,22.72 18.04725,22.1942857 C18.04725,21.6685714 17.61525,21.2571429 17.06325,21.2571429 L6.57525,21.2571429 C6.02325,21.2571429 5.59125,21.6685714 5.59125,22.1942857 C5.59125,22.72 6.02325,23.1314286 6.57525,23.1314286 L17.06325,23.1314286 Z M31.31125,33.9885714 L25.33525,33.9885714 C23.87125,33.9885714 22.67125,32.8457143 22.67125,31.4514286 C22.67125,30.6285714 23.19925,30.0342857 23.65525,29.6685714 C22.76725,28.7314286 20.96725,26.5828571 20.96725,24.5257143 C20.96725,20.6628571 24.27925,17.5085714 28.33525,17.5085714 C32.39125,17.5085714 35.70325,20.6628571 35.70325,24.5257143 C35.70325,26.5828571 33.90325,28.7314286 33.01525,29.6685714 C33.47125,30.0342857 33.99925,30.6285714 33.99925,31.4514286 C33.97525,32.8457143 32.79925,33.9885714 31.31125,33.9885714 Z M28.33525,19.36 C25.33525,19.36 22.88725,21.6914286 22.88725,24.5485714 C22.88725,26.08 24.80725,28.2057143 25.47925,28.8228571 L25.50325,28.8457143 C25.79125,29.1428571 25.93525,29.5085714 25.88725,29.8971429 C25.83925,30.2857143 25.62325,30.6285714 25.26325,30.8571429 L25.16725,30.9028571 C24.92725,31.0171429 24.61525,31.2914286 24.61525,31.4514286 C24.61525,31.84 24.95125,32.16 25.35925,32.16 L31.33525,32.16 C31.74325,32.16 32.07925,31.84 32.07925,31.4514286 C32.07925,31.2914286 31.71925,31.0171429 31.52725,30.9028571 L31.45525,30.8571429 C31.09525,30.6514286 30.85525,30.3085714 30.80725,29.92 C30.75925,29.5314286 30.90325,29.1428571 31.19125,28.8457143 L31.21525,28.8228571 C31.93525,28.16 33.80725,26.08 33.80725,24.5485714 C33.78325,21.6685714 31.33525,19.36 28.33525,19.36 Z M35.51125,39.6114286 L21.15925,39.6114286 C20.34325,39.6114286 19.67125,38.9714286 19.67125,38.1942857 L19.67125,37.0514286 C19.67125,35.6571429 20.87125,34.5142857 22.33525,34.5142857 L34.31125,34.5142857 C35.77525,34.5142857 36.97525,35.6571429 36.97525,37.0514286 L36.97525,38.1942857 C36.97525,38.9714286 36.30325,39.6114286 35.51125,39.6114286 Z M21.59125,37.7828571 L35.05525,37.7828571 L35.05525,37.0742857 C35.05525,36.6857143 34.71925,36.3657143 34.31125,36.3657143 L22.33525,36.3657143 C21.92725,36.3657143 21.59125,36.6857143 21.59125,37.0742857 L21.59125,37.7828571 Z" id="Shape" fill-rule="nonzero"></path>
                </g>
            </g>
        </g>
    </g>
</svg>