<?xml version="1.0" encoding="UTF-8"?>
<svg width="37px" height="39px" viewBox="0 0 37 39" version="1.1" xmlns="http://www.w3.org/2000/svg" xmlns:xlink="http://www.w3.org/1999/xlink">
    <!-- Generator: Sketch 50.2 (55047) - http://www.bohemiancoding.com/sketch -->
    <title>btn_home_ddgl</title>
    <desc>Created with Sketch.</desc>
    <defs></defs>
    <g id="Page-1" stroke="none" stroke-width="1" fill="none" fill-rule="evenodd">
        <g id="首页" transform="translate(-344.000000, -96.000000)" fill="#F8FFBD" fill-rule="nonzero" stroke="#F8FFBD" stroke-width="0.5">
            <g id="btn_home_ddgl" transform="translate(343.000000, 96.000000)">
                <path d="M2.88923955,37.9865816 C2.65789268,37.9865816 2.4265458,37.8998265 2.25303564,37.697398 C2.07952549,37.5238879 1.99277041,37.292541 2.02168877,37.0322758 L3.84354541,9.0393039 C3.87246377,8.57661015 4.24840244,8.22958984 4.71109619,8.22958984 L12.3455431,8.22958984 L12.3455431,8.1139164 C12.3455431,6.20530468 13.0974204,4.44128476 14.4276649,3.08212187 C15.7868278,1.7807957 17.5508477,1.02891836 19.4594595,1.02891836 C23.363438,1.02891836 26.5733759,4.20993789 26.5733759,8.14283476 C26.5733759,8.17175312 26.5444575,8.20067148 26.5444575,8.22958984 L26.5444575,8.2585082 L34.2078227,8.2585082 C34.6705165,8.2585082 35.0464552,8.60552851 35.0753735,9.06822226 L36.8683118,36.8587656 C36.8972301,36.9455207 36.8972301,37.0033574 36.8972301,37.0901125 C36.8683118,37.5817246 36.4923731,37.9865816 36.000761,37.9865816 L2.88923955,37.9865816 L2.88923955,37.9865816 Z M3.81462705,36.2514801 L35.0753735,36.2514801 L33.3981087,9.99360976 L26.5444575,9.99360976 L26.5444575,12.0757316 L26.5733759,12.0757316 C27.0360696,12.3938336 27.2963348,12.8565273 27.2963348,13.3770578 C27.2963348,14.2735269 26.5733759,14.9964859 25.6769067,14.9964859 C24.7804376,14.9964859 24.0574786,14.2735269 24.0574786,13.3770578 C24.0574786,12.8565273 24.3177438,12.3938336 24.7804376,12.0757316 L24.8093559,12.0757316 L24.8093559,9.99360976 L14.0806446,9.99360976 L14.0806446,12.0757316 L14.109563,12.0757316 C14.5722567,12.3938336 14.832522,12.8565273 14.832522,13.3770578 C14.832522,14.2735269 14.109563,14.9964859 13.2130938,14.9964859 C12.3166247,14.9964859 11.5936657,14.2735269 11.5936657,13.3770578 C11.5936657,12.8565273 11.8539309,12.3938336 12.3166247,12.0757316 L12.3455431,12.0757316 L12.3455431,9.99360976 L5.49189189,9.99360976 L3.81462705,36.2514801 L3.81462705,36.2514801 Z M19.4594595,2.79293828 C16.5097868,2.79293828 14.0806446,5.19316211 14.0806446,8.17175312 L14.0806446,8.28742656 L24.8671927,8.28742656 L24.8382743,8.22958984 L24.8382743,8.17175312 C24.8382743,5.19316211 22.4091321,2.79293828 19.4594595,2.79293828 L19.4594595,2.79293828 Z" id="Shape"></path>
            </g>
        </g>
    </g>
</svg>