<?xml version="1.0" encoding="UTF-8"?>
<svg width="32px" height="40px" viewBox="0 0 32 40" version="1.1" xmlns="http://www.w3.org/2000/svg" xmlns:xlink="http://www.w3.org/1999/xlink">
    <!-- Generator: Sketch 50.2 (55047) - http://www.bohemiancoding.com/sketch -->
    <title>btn_home_fkdtj</title>
    <desc>Created with Sketch.</desc>
    <defs></defs>
    <g id="Page-1" stroke="none" stroke-width="1" fill="none" fill-rule="evenodd">
        <g id="首页" transform="translate(-347.000000, -96.000000)" fill="#F8FFBD" fill-rule="nonzero">
            <g id="btn_home_fkdtj" transform="translate(343.000000, 96.000000)">
                <g id="放款待提交" transform="translate(4.000000, 0.000000)">
                    <path d="M25.6701539,39.3430154 C15.2233846,31.6636308 6.81292307,39.1916308 6.7286154,39.2685539 C6.29169231,39.6704 5.61046154,39.6420923 5.20676923,39.2045539 C4.80492308,38.7664 4.83323077,38.0845539 5.27138461,37.6820923 C5.368,37.5928615 15.088,28.8900923 26.9452308,37.6076308 C27.4246154,37.9596308 27.5273846,38.6340923 27.1753846,39.1128615 C26.9643077,39.4002461 26.6375385,39.5522461 26.3070769,39.5522461 C26.0855385,39.5522461 25.8615385,39.4845539 25.6701539,39.3430154 Z" id="Fill-11"></path>
                    <path d="M14.9678698,19.2532512 L5.75729231,13.1455385 C4.82498461,12.5276923 4.27421539,11.492 4.2816,10.3750769 L4.3365647,2.15384615 L1.07692308,2.15384615 C0.481846154,2.15384615 0,1.67138461 0,1.07692308 C0,0.482461539 0.481846154,0 1.07692308,0 L30.6153846,0 C31.2104615,0 31.6923077,0.482461539 31.6923077,1.07692308 C31.6923077,1.67138461 31.2104615,2.15384615 30.6153846,2.15384615 L27.4136357,2.15384615 L27.3579077,10.4944615 C27.3511385,11.6064615 26.7899077,12.6323077 25.8569846,13.2378461 L16.5940317,19.2532108 L25.8570461,25.2686154 C26.7893539,25.8747692 27.3512,26.9 27.3579692,28.0126154 L27.4166713,37.4098461 L30.6153846,37.4098461 C31.2104615,37.4098461 31.6923077,37.8916923 31.6923077,38.4867692 C31.6923077,39.0818461 31.2104615,39.5636923 30.6153846,39.5636923 L1.07692308,39.5636923 C0.481846154,39.5636923 0,39.0818461 0,38.4867692 C0,37.8916923 0.481846154,37.4098461 1.07692308,37.4098461 L4.33965961,37.4098461 L4.28166154,28.1301539 C4.27427692,27.0138461 4.82504615,25.9781539 5.75735385,25.3609231 L14.9678698,19.2532512 Z M6.49359045,37.4098461 L25.2627406,37.4098461 L25.2041231,28.0261539 C25.2016615,27.6409231 25.0072,27.2852308 24.6841231,27.0753846 L15.7844308,21.2956923 L6.94689233,27.156 C6.62381539,27.3707692 6.43243077,27.7295385 6.43550769,28.116 L6.49359045,37.4098461 Z M25.2596949,2.15384615 L6.4905096,2.15384615 L6.43544615,10.3898461 C6.43236923,10.7775385 6.62436923,11.1363077 6.9468308,11.3504615 L15.7843692,17.2107692 L24.6840615,11.4316923 C25.0071385,11.2212308 25.2016,10.8661539 25.2040615,10.4803077 L25.2596949,2.15384615 Z M10.3076923,32.3076923 C9.7126154,32.3076923 9.2307692,31.8258461 9.2307692,31.2307692 L9.2307692,29.3846154 C9.2307692,28.7895385 9.7126154,28.3076923 10.3076923,28.3076923 C10.9027692,28.3076923 11.3846154,28.7895385 11.3846154,29.3846154 L11.3846154,31.2307692 C11.3846154,31.8258461 10.9027692,32.3076923 10.3076923,32.3076923 Z" id="Combined-Shape"></path>
                    <path d="M21.3846154,8.66666667 L10.3076923,8.66666667 C9.7126154,8.66666667 9.2307692,8.21866667 9.2307692,7.66666667 C9.2307692,7.11466667 9.7126154,6.66666667 10.3076923,6.66666667 L21.3846154,6.66666667 C21.9796923,6.66666667 22.4615385,7.11466667 22.4615385,7.66666667 C22.4615385,8.21866667 21.9796923,8.66666667 21.3846154,8.66666667" id="Fill-13"></path>
                </g>
            </g>
        </g>
    </g>
</svg>