<?xml version="1.0" encoding="UTF-8"?>
<svg width="38px" height="38px" viewBox="0 0 38 38" version="1.1" xmlns="http://www.w3.org/2000/svg" xmlns:xlink="http://www.w3.org/1999/xlink">
    <!-- Generator: Sketch 50.2 (55047) - http://www.bohemiancoding.com/sketch -->
    <title>btn_home_cqgl</title>
    <desc>Created with Sketch.</desc>
    <defs></defs>
    <g id="Page-1" stroke="none" stroke-width="1" fill="none" fill-rule="evenodd">
        <g id="首页" transform="translate(-1254.000000, -97.000000)" fill="#FFFFFF" fill-rule="nonzero">
            <g id="btn_home_cqgl" transform="translate(1253.000000, 96.000000)">
                <path d="M20.0056136,1.04232922 C9.53181792,1.04232922 1.04180209,9.53387599 1.04180209,20.0076279 C1.04180209,30.4814235 9.53186169,38.9714393 20.0056136,38.9714393 C30.4809401,38.9714393 38.9701686,30.4814235 38.9701686,20.0076279 C38.9701686,9.53387599 30.4809401,1.04232922 20.0056136,1.04232922 M20.050609,37.1522324 C10.6064672,37.1522324 2.95100369,29.4967249 2.95100369,20.0526709 C2.95100369,10.6070819 10.6065111,2.95157455 20.050609,2.95157455 C29.4947068,2.95157455 37.1510037,10.607082 37.1510037,20.0526709 C37.1510037,29.4967249 29.4947507,37.1522324 20.050609,37.1522324 M28.2257045,27.2164298 C27.5537572,26.9739742 18.5483864,27.9688603 15.5779,24.4644291 C16.3124842,23.0474873 17.0828922,21.3776358 17.7303009,19.5975134 C17.8324358,19.3163034 17.9078013,19.1127333 17.9644895,18.9583718 C17.9779179,18.9382073 17.9898154,18.9173429 18.0009693,18.8971784 C17.9965078,18.9083323 17.9980387,18.920361 17.9950643,18.9315149 C17.9950643,18.9315149 18.0039875,18.9083323 18.0151414,18.8733396 C18.055383,18.7957433 18.0829835,18.7114109 18.0994301,18.6234917 C18.1158329,18.5697779 18.1218254,18.546639 18.1024045,18.5951477 C18.1076096,18.554906 18.1150893,18.5153643 18.1150893,18.4728482 C18.1150893,17.9493137 17.6467558,17.5241524 17.0702511,17.5241524 L14.593468,17.5234088 L17.622086,13.3522355 C17.6548916,13.3053015 17.6653457,13.2522876 17.6900156,13.2038227 C17.72877,13.141142 17.7593448,13.0755307 17.7816964,13.0054141 C17.7854581,12.9912421 17.7914069,12.978601 17.7951249,12.9643852 C17.8138023,12.8942686 17.8264871,12.8204777 17.8264871,12.743625 C17.8264871,12.7093322 17.8190512,12.6750393 17.8153332,12.6407028 C17.7943813,12.367716 17.6728692,12.1127504 17.4438857,11.9516091 C17.2969601,11.850174 17.1299137,11.8158374 16.9605928,11.8114196 C16.9017176,11.8016654 16.8428424,11.794973 16.7808616,11.794973 L12.572421,11.7935296 C11.9952165,11.7935296 11.5275828,12.2186034 11.5275828,12.7421379 C11.5275828,13.2671596 11.9952165,13.6923209 12.572421,13.6923209 L15.0290834,13.6923209 L12.0205862,17.8374247 C11.9624109,17.9194388 11.9325358,18.0111634 11.8997302,18.1013571 C11.8989866,18.1021007 11.8989866,18.1035879 11.8989866,18.1035879 C11.8796094,18.1565144 11.8557706,18.2050667 11.8460601,18.2572496 C11.8274265,18.3265789 11.8161851,18.3982264 11.8161851,18.4728483 C11.8161851,18.5041668 11.8229212,18.5354415 11.8258956,18.5652728 C11.8296135,18.5877119 11.8311007,18.607789 11.8340751,18.6293969 C11.8489907,18.7121547 11.875104,18.7905383 11.9124588,18.8650728 C11.9765392,19.0098113 12.0638459,19.1425211 12.1987865,19.236564 C12.2614234,19.2805673 12.3322399,19.2946519 12.4001695,19.3215088 C12.4285136,19.3334938 12.4575575,19.3461787 12.4866889,19.3558454 C12.5172638,19.3633688 12.5448643,19.3767098 12.5754829,19.3812151 C12.6671638,19.4050539 12.7618628,19.4214567 12.8618107,19.4214567 L15.7637114,19.4229439 C15.322191,20.5625248 14.8150156,21.6610769 14.3064405,22.6567066 C13.8246785,21.8907164 13.5569406,21.3731307 13.5569406,21.3731307 C13.2683383,20.873435 12.6664639,20.6810626 12.2115151,20.9428955 C11.7573537,21.205297 11.6238565,21.8228743 11.9125025,22.32257 C11.9125025,22.32257 12.4270701,23.3115074 13.2794923,24.5465309 C12.3815796,26.103706 11.6484826,27.1403209 11.5336191,27.2372944 C11.3442211,27.3976922 10.7296618,28.1814412 11.2233651,28.7333198 C11.8378806,29.4164647 12.4710297,29.1092288 12.8886676,28.7638946 C13.121369,28.5715223 13.8060012,27.6086545 14.6442512,26.1648995 C18.3418859,29.3523843 26.5902334,29.1091851 27.3464693,28.9630906 C27.7656381,28.8824324 28.7813449,29.0853463 28.9528966,28.2844072 C29.1079579,27.5594895 28.4583622,27.2999311 28.2257045,27.2164298 M19.9705334,13.7713605 L22.8925111,13.3761179 L22.8925111,23.5299928 L21.1168504,23.5299928 L21.0310308,16.6396682 C21.0310308,16.0624636 20.6067006,15.5941301 20.0816789,15.5941301 C19.5581444,15.5941301 19.1315834,16.0624636 19.1315834,16.6396682 L19.227026,24.384602 C19.227026,24.9611942 19.653587,25.4295277 20.1771215,25.4295277 C20.2264175,25.4295277 20.2726078,25.4205171 20.3203291,25.4130811 C20.3755301,25.4220043 20.4322182,25.4295277 20.4925807,25.4295277 L27.9154067,25.4295277 C28.4933549,25.4295277 28.9602449,25.0043227 28.9602449,24.4800884 C28.9602449,23.9558103 28.4933549,23.5299929 27.9154067,23.5299929 L24.7898152,23.5299929 L24.7898152,19.4221563 L27.0786001,19.4221563 C27.6558046,19.4221563 28.123482,18.9963389 28.123482,18.4728044 C28.123482,17.9477827 27.6558483,17.5226214 27.0786001,17.5226214 L24.7898152,17.5226214 L24.7898152,13.1702297 C24.7898152,13.153127 24.7867971,13.1374678 24.7860972,13.1202776 L27.2837448,12.7824668 C27.8512826,12.6817316 28.239789,12.1828232 28.1481082,11.6652374 C28.0570834,11.1491389 27.5223513,10.8120717 26.9540698,10.9120196 L19.6394149,11.9009133 C19.0718334,12.0008612 18.6840705,12.5020003 18.7757514,13.0180551 C18.8675635,13.5341975 19.402252,13.8713521 19.9705334,13.7713605"></path>
            </g>
        </g>
    </g>
</svg>