<?xml version="1.0" encoding="UTF-8"?>
<svg width="40px" height="40px" viewBox="0 0 40 40" version="1.1" xmlns="http://www.w3.org/2000/svg" xmlns:xlink="http://www.w3.org/1999/xlink">
    <!-- Generator: Sketch 50.2 (55047) - http://www.bohemiancoding.com/sketch -->
    <title>btn_home_gddqtx</title>
    <desc>Created with Sketch.</desc>
    <defs></defs>
    <g id="Page-1" stroke="none" stroke-width="1" fill="none" fill-rule="evenodd">
        <g id="首页" transform="translate(-951.000000, -96.000000)" fill="#85924D" fill-rule="nonzero">
            <g id="btn_home_gddqtx" transform="translate(951.000000, 96.000000)">
                <g id="待处理">
                    <path d="M26.0225971,36.9583656 C24.7546819,37.4338338 23.1697879,37.7508126 21.7433834,37.909302 C21.1094258,37.909302 20.792447,38.5432596 20.792447,39.0187278 C20.792447,39.494196 21.2679152,39.9696641 21.7433834,39.9696641 L21.9018728,39.9696641 C23.6452561,39.8111747 25.2301501,39.4941959 26.8150441,38.8602384 C27.2905123,38.7017489 27.6074911,38.0677913 27.4490017,37.5923232 C27.2905123,37.116855 26.6565547,36.7998762 26.0225971,36.9583656 Z M33.4715988,31.8867048 C32.5206625,32.9961306 31.4112367,33.947067 30.1433214,34.8980034 C29.6678532,35.2149822 29.5093639,35.8489398 29.8263427,36.324408 C29.9848321,36.6413868 30.3018109,36.7998762 30.6187897,36.7998762 C30.7772791,36.7998762 31.0942579,36.7998762 31.2527472,36.6413868 C32.6791518,35.6904504 33.947067,34.5810246 35.0564928,33.3131094 C35.3734716,32.8376412 35.3734716,32.2036836 34.8980034,31.8867048 C34.4225352,31.4112366 33.7885776,31.569726 33.4715988,31.8867048 Z M39.3357066,14.6113605 C39.1772171,14.1358923 38.5432596,13.8189135 38.0677913,13.8189135 C37.5923231,13.9774029 37.2753443,14.6113605 37.2753444,15.0868287 C37.7508126,16.5132332 37.909302,18.0981272 37.909302,19.5245318 C37.909302,20.1584894 38.3847702,20.4754682 38.8602384,20.4754682 C39.4941959,20.4754682 39.8111747,20 39.8111747,19.3660424 C39.9696641,17.7811485 39.8111747,16.1962544 39.3357066,14.6113605 Z M38.701749,23.169788 C38.0677914,23.0112986 37.5923232,23.3282774 37.4338338,23.9622349 C37.116855,25.3886395 36.6413868,26.8150441 35.8489398,28.2414487 C35.531961,28.7169169 35.8489398,29.3508745 36.324408,29.6678533 C36.4828974,29.6678533 36.6413868,29.8263427 36.7998762,29.8263427 C37.116855,29.8263427 37.5923232,29.6678532 37.7508126,29.1923851 C38.5432596,27.7659805 39.0187277,26.1810865 39.4941959,24.4377031 C39.6526854,23.9622349 39.3357065,23.3282773 38.701749,23.169788 Z M36.9583656,11.4415725 C37.4338338,11.1245937 37.5923232,10.4906361 37.4338338,10.0151679 C36.9583656,9.22272093 36.4828974,8.58876334 36.0074292,7.95480575 C35.6904504,7.47933755 35.0564928,7.47933755 34.5810246,7.79631638 C34.1055564,8.11329517 34.1055564,8.74725276 34.4225352,9.22272093 C34.8980034,9.85667851 35.3734716,10.4906361 35.6904504,11.1245937 C35.8489398,11.4415725 36.1659186,11.6000619 36.6413868,11.6000619 C36.6413868,11.4415725 36.7998762,11.4415725 36.9583656,11.4415725 Z M16.1962544,37.5923232 C7.95480575,35.8489398 1.93220865,28.3999381 1.93220865,20 C1.93220865,10.0151679 10.0151679,1.93220865 20,1.93220865 C23.0112986,1.93220865 25.8641077,2.72465565 28.3999381,3.99257082 L28.0829593,3.99257082 C27.4490017,4.15106024 27.1320229,4.62652841 27.2905123,5.10199658 C27.4490017,5.57746479 27.7659805,5.89444358 28.2414487,5.89444358 L28.3999381,5.89444358 L31.4112367,5.73595421 C31.7282155,5.73595421 31.8867049,5.57746479 32.0451942,5.260486 C32.0451942,5.10199658 32.0451942,5.10199658 32.2036836,4.9435072 L32.2036836,4.62652841 L32.2036836,4.46803899 L31.2527472,1.29825103 C31.0942578,0.822782817 30.4603002,0.505804024 29.9848321,0.664293441 C29.5093639,0.822782857 29.1923851,1.45674044 29.1923851,1.93220865 L29.5093639,2.40767682 C26.6565547,0.822782857 23.3282773,0.0303358551 20,0.0303358551 C8.90574213,0.0303358551 0.0303358551,8.90574213 0.0303358551,20 C0.0303358551,29.3508745 6.68689058,37.5923232 15.7207862,39.6526854 L15.8792757,39.6526854 C16.3547439,39.6526854 16.830212,39.3357066 16.830212,38.8602384 C16.9887014,38.2262808 16.6717226,37.7508126 16.1962544,37.5923232 Z" id="Shape"></path>
                    <path d="M29.0338957,25.0716607 L19.207553,19.8415106 L19.207553,9.85667855 C19.207553,9.22272097 18.7320848,8.90574217 18.2566166,8.90574213 C17.7811485,8.90574209 17.3056802,9.38121034 17.3056802,9.85667855 L17.3056802,20.3169788 C17.3056802,20.6339576 17.4641697,21.1094258 17.7811484,21.2679152 L28.2414487,26.8150441 C28.3999381,26.9735335 28.5584275,26.9735335 28.7169169,26.9735335 C29.0338957,26.9735335 29.5093639,26.8150441 29.6678533,26.4980653 C29.8263427,26.0225971 29.6678533,25.3886395 29.0338957,25.0716607 Z" id="Shape"></path>
                </g>
            </g>
        </g>
    </g>
</svg>