<?xml version="1.0" encoding="UTF-8"?>
<svg width="35px" height="40px" viewBox="0 0 35 40" version="1.1" xmlns="http://www.w3.org/2000/svg" xmlns:xlink="http://www.w3.org/1999/xlink">
    <!-- Generator: Sketch 50.2 (55047) - http://www.bohemiancoding.com/sketch -->
    <title>btn_home_fkth</title>
    <desc>Created with Sketch.</desc>
    <defs></defs>
    <g id="Page-1" stroke="none" stroke-width="1" fill="none" fill-rule="evenodd">
        <g id="首页" transform="translate(-650.000000, -96.000000)" fill="#FFFFFF" fill-rule="nonzero">
            <g id="btn_home_fkth" transform="translate(647.000000, 96.000000)">
                <g id="放款退回" transform="translate(3.000000, 0.000000)">
                    <path d="M11.3933435,39.3444475 L3.13486199,39.3444475 C1.40631388,39.3444475 0.000246865959,37.9334945 0.000246865959,36.1989398 L0.000246865959,3.14569277 C0.000246865959,1.41113812 1.40631388,0.00018514947 3.13486199,0.00018514947 L30.9639924,0.00018514947 C32.6925405,0.00018514947 34.0986075,1.41113812 34.0986075,3.14569277 L34.0986075,21.930089 C34.0986075,22.5289381 33.6148859,23.0149606 33.0174927,23.0149606 C32.4200996,23.0149606 31.9363779,22.5289381 31.9363779,21.930089 L31.9363779,3.14569277 C31.9363779,2.60759648 31.5002253,2.16992829 30.9639924,2.16992829 L3.13486199,2.16992829 C2.59862906,2.16992829 2.16247646,2.60759648 2.16247646,3.14569277 L2.16247646,36.1989398 C2.16247646,36.7370361 2.59862906,37.1747043 3.13486199,37.1747043 L11.3933435,37.1747043 C11.9907366,37.1747043 12.4744583,37.6601068 12.4744583,38.2595759 C12.4744583,38.8590449 11.9907366,39.3444475 11.3933435,39.3444475 Z M8.54649954,11.7053346 L12.5580713,11.7053346 L12.5580713,7.0765979 L8.54649954,7.0765979 L8.54649954,11.7053346 Z M13.6381099,13.8654117 L7.46646092,13.8654117 C6.86966249,13.8654117 6.38642237,13.3815545 6.38642237,12.7853732 L6.38642237,5.9965593 C6.38642237,5.40037801 6.86966249,4.91652073 7.46646092,4.91652073 L13.6381099,4.91652073 C14.2342912,4.91652073 14.7181485,5.40037801 14.7181485,5.9965593 L14.7181485,12.7853732 C14.7181485,13.3815545 14.2342912,13.8654117 13.6381099,13.8654117 Z M26.5983877,13.8654117 L17.9580791,13.8654117 C17.3612806,13.8654117 16.8780405,13.3815545 16.8780405,12.7853732 C16.8780405,12.1891919 17.3612806,11.7053346 17.9580791,11.7053346 L26.5983877,11.7053346 C27.1951861,11.7053346 27.6784262,12.1891919 27.6784262,12.7853732 C27.6784262,13.3815545 27.1951861,13.8654117 26.5983877,13.8654117 Z M26.7312016,20.520918 L6.98192479,20.520918 C6.38512633,20.520918 5.90188621,20.0370607 5.90188621,19.4408795 C5.90188621,18.8446982 6.38512633,18.3608409 6.98192479,18.3608409 L26.7312016,18.3608409 C27.328,18.3608409 27.8112401,18.8446982 27.8112401,19.4408795 C27.8112401,20.0370607 27.328,20.520918 26.7312016,20.520918 Z" id="Shape"></path>
                    <path d="M16.7773696,29.4179281 L30.7491508,29.4179281 C32.5636155,29.4179281 34.0404911,30.8948037 34.0404911,32.7092685 L34.0404911,36.3098085 C34.0404911,38.1242733 32.5636155,39.6011489 30.7491508,39.6011489 L25.9142809,39.6011489 C25.3174825,39.6011489 24.8342424,39.1179088 24.8342424,38.5211104 C24.8342424,37.9243119 25.3174825,37.4410717 25.9142809,37.4410717 L30.7491508,37.4410717 C31.3731045,37.4410717 31.880414,36.9337622 31.880414,36.3098085 L31.880414,32.7092685 C31.880414,32.0853148 31.3731045,31.5780052 30.7491508,31.5780052 L16.8234615,31.5780052 L20.1088576,34.8417584 C20.5322327,35.2614305 20.5347014,35.9458664 20.1137949,36.3686243 C19.9027245,36.580929 19.6256174,36.6876986 19.3478932,36.6876986 C19.0726377,36.6876986 18.7973822,36.5833977 18.5869289,36.3735616 L13.433602,31.2547959 C13.2173463,31.0404317 13.1110687,30.7569889 13.1148516,30.4746254 C13.1113625,30.1925357 13.2178043,29.909437 13.4338489,29.695282 L18.5865586,24.5758991 C19.010551,24.1556098 19.6937525,24.1580785 20.1140418,24.5814536 C20.5343311,25.0048287 20.5324795,25.6886475 20.1091045,26.1089368 L16.7773696,29.4179281 Z" id="Shape"></path>
                </g>
            </g>
        </g>
    </g>
</svg>