<?xml version="1.0" encoding="UTF-8"?>
<svg width="40px" height="40px" viewBox="0 0 40 40" version="1.1" xmlns="http://www.w3.org/2000/svg" xmlns:xlink="http://www.w3.org/1999/xlink">
    <!-- Generator: Sketch 50.2 (55047) - http://www.bohemiancoding.com/sketch -->
    <title>btn_home_fkgl</title>
    <desc>Created with Sketch.</desc>
    <defs></defs>
    <g id="Page-1" stroke="none" stroke-width="1" fill="none" fill-rule="evenodd">
        <g id="首页" transform="translate(-645.000000, -96.000000)" fill="#FFFFFF" fill-rule="nonzero" stroke="#FFFFFF" stroke-width="0.5">
            <g id="btn_home_fkgl" transform="translate(645.000000, 96.000000)">
                <path d="M20.9821661,19.6791501 L20.9821661,22.4357337 L25.8602302,22.4357337 C26.4036743,22.4357337 26.8423963,22.8744123 26.8423963,23.4178998 C26.8423963,23.9613439 26.4037178,24.4000659 25.8602302,24.4000659 L20.9821661,24.4000659 L20.9821661,27.490606 C20.9821661,28.0340501 20.5434875,28.4727721 20,28.4727721 C19.4565559,28.4727721 19.0178339,28.0340935 19.0178339,27.490606 L19.0178339,24.4000659 L14.1397698,24.4000659 C13.5963257,24.4000659 13.1576037,23.9613874 13.1576037,23.4178998 C13.1576037,22.8744557 13.5962822,22.4357337 14.1397698,22.4357337 L19.0178339,22.4357337 L19.0178339,19.6791501 L14.1397698,19.6791501 C13.5963257,19.6791501 13.1576037,19.2404715 13.1576037,18.696984 C13.1576037,18.1535399 13.5962822,17.7148179 14.1397698,17.7148179 L18.6773676,17.7148179 L13.4981134,13.2492627 C13.0856045,12.8956898 13.039775,12.2802031 13.3933479,11.8676942 C13.753474,11.4551853 14.3689607,11.4093558 14.7814696,11.7694819 L20,16.2612502 L25.2185304,11.769482 C25.6310393,11.4093559 26.246526,11.4551854 26.6066521,11.8676943 C26.960225,12.2802031 26.9143955,12.8956899 26.5018866,13.2492627 L21.3226324,17.7148179 L25.8602302,17.7148179 C26.4036743,17.7148179 26.8423963,18.1534965 26.8423963,18.696984 C26.8423963,19.2404281 26.4037178,19.6791501 25.8602302,19.6791501 L20.9821661,19.6791501 Z M10.9837405,36.7098433 C10.5057423,36.4544827 10.3289775,35.8586559 10.5843381,35.3806576 C10.8396987,34.9026594 11.4355256,34.7258947 11.9135238,34.9812553 C13.1379439,35.6425715 14.4475132,36.1598459 15.8225284,36.5068655 C17.1582673,36.8408219 18.5529423,37.0175867 20,37.0175867 C24.701256,37.0175867 28.9573236,35.1121905 32.034757,32.034757 C35.1121905,28.9573235 37.0175867,24.7012994 37.0175867,20 C37.0175867,15.2987006 35.1121906,11.0426765 32.034757,7.965243 C28.9573235,4.88780952 24.701256,2.98241335 20,2.98241335 C15.298744,2.98241335 11.0426765,4.88780948 7.965243,7.965243 C4.88780952,11.0426765 2.98241335,15.2987006 2.98241335,20 C2.98241335,22.0690977 3.34909274,24.0464931 4.02351546,25.8733367 C4.72410789,27.7787329 5.74555023,29.5204275 7.02890637,31.0264212 C7.38247924,31.4389301 7.33009645,32.0609701 6.91758758,32.4079897 C6.5050787,32.7615626 5.88959198,32.7091798 5.54257242,32.2966709 C4.10206795,30.6073591 2.949647,28.6626868 2.17705539,26.5477595 C1.42408017,24.5048749 1.0115713,22.2982886 1.0115713,20 C1.0115713,14.7552565 3.13960506,10.0081277 6.5706114,6.57056806 C10.008171,3.13956171 14.7552999,1.01152795 20.0000434,1.01152795 C25.2447869,1.01152795 29.9919158,3.13956171 33.4294754,6.57056806 C36.8604817,10.0081277 38.9885155,14.7552565 38.9885155,20 C38.9885155,25.2447435 36.8604817,29.9918724 33.4294754,33.429432 C29.9919158,36.8604384 25.2447869,38.9884721 20.0000434,38.9884721 C18.3958373,38.9884721 16.8375042,38.7854943 15.3446169,38.4122617 C13.8058134,38.0259224 12.3456925,37.449712 10.9837405,36.7098433 Z" id="Shape"></path>
            </g>
        </g>
    </g>
</svg>