<?xml version="1.0" encoding="UTF-8"?>
<svg width="34px" height="36px" viewBox="0 0 34 36" version="1.1" xmlns="http://www.w3.org/2000/svg" xmlns:xlink="http://www.w3.org/1999/xlink">
    <!-- Generator: Sketch 50.2 (55047) - http://www.bohemiancoding.com/sketch -->
    <title>btn_home_gdth</title>
    <desc>Created with Sketch.</desc>
    <defs></defs>
    <g id="Page-1" stroke="none" stroke-width="1" fill="none" fill-rule="evenodd">
        <g id="首页" transform="translate(-954.000000, -98.000000)" fill="#85924D" fill-rule="nonzero">
            <g id="btn_home_gdth" transform="translate(951.000000, 96.000000)">
                <polygon id="Shape" points="12.7264624 19.0063138 27.2735376 19.0063138 27.2735376 21.4308264 12.7264624 21.4308264 12.7264624 19.0063138"></polygon>
                <path d="M14.7953798,2.03472608 L6.60052741,2.03472608 C4.63424774,2.03472608 3.02841226,3.47892741 3.02841226,5.25932775 L3.02841226,34.3696416 C3.02841226,36.1476175 4.62616602,37.5942433 6.59648652,37.5942433 L33.4035135,37.5942433 C35.3794912,37.5942433 36.9715877,36.150042 36.9715877,34.3696416 L36.9715877,5.25932775 C36.9715877,3.48135187 35.3722177,2.03472608 33.3994726,2.03472608 L25.477782,2.03472608 C25.477782,2.67774678 25.733221,3.29443103 26.1879053,3.74911533 C26.6425896,4.20379963 27.2592738,4.45923861 27.9022945,4.45923861 L33.4002808,4.45923861 C34.0839933,4.45923861 34.5470752,4.87706295 34.5470752,5.25932775 L34.5470752,34.3696416 C34.5470752,34.7559473 34.0896505,35.1697307 33.4035135,35.1697307 L6.59648652,35.1697307 C5.91439031,35.1697307 5.45292479,34.7519064 5.45292479,34.3696416 L5.45292479,5.25932775 C5.45292479,4.87948747 5.9184312,4.45923861 6.60052741,4.45923861 L12.3708672,4.45923861 C13.7098885,4.45923861 14.7953798,3.37374737 14.7953798,2.03472608 L14.7953798,2.03472608 Z" id="Shape"></path>
                <polygon id="Shape" points="12.7264624 13.3491179 27.2735376 13.3491179 27.2735376 15.7736305 12.7264624 15.7736305 12.7264624 13.3491179"></polygon>
                <polygon id="Shape" points="16.7673166 2.03472608 23.2326834 2.03472608 23.2326834 4.45923861 16.7673166 4.45923861 16.7673166 2.03472608"></polygon>
                <polygon id="Shape" points="12.7264624 24.6635097 27.2735376 24.6635097 27.2735376 27.0880223 12.7264624 27.0880223 12.7264624 24.6635097"></polygon>
            </g>
        </g>
    </g>
</svg>