<?xml version="1.0" encoding="UTF-8"?>
<svg width="168px" height="28px" viewBox="0 0 168 28" version="1.1" xmlns="http://www.w3.org/2000/svg" xmlns:xlink="http://www.w3.org/1999/xlink">
    <!-- Generator: Sketch 50.2 (55047) - http://www.bohemiancoding.com/sketch -->
    <title>logo@2x</title>
    <desc>Created with Sketch.</desc>
    <defs></defs>
    <g id="Page-1" stroke="none" stroke-width="1" fill="none" fill-rule="evenodd">
        <g id="首页" transform="translate(-121.000000, -11.000000)" fill="#FFFFFF" fill-rule="nonzero">
            <g id="黑色导航">
                <g id="顶部">
                    <g id="logo" transform="translate(121.000000, 11.000000)">
                        <path d="M5.92916667,26.0108333 L4.68666667,26.0108333 L4.68666667,25.235 L7.265,25.235 L7.265,27.6383333 C6.7975682,27.7254558 6.32297841,27.7684227 5.8475,27.7666667 C5.47416667,27.7666667 5.00166667,27.8133333 4.43,27.8133333 C2.48166667,27.755 1.51333333,26.95 1.42583333,25.41 C1.48416667,23.8641667 2.48166667,23.0358333 4.43,22.9191667 C6.37444444,22.9191667 7.34666667,23.4344444 7.34666667,24.465 L5.92916667,24.465 C5.92916667,23.9225 5.50333333,23.6483333 4.64583333,23.6483333 C3.47916667,23.6794444 2.89583333,24.2627778 2.89583333,25.3983333 C2.89583333,26.565 3.47916667,27.1133333 4.64583333,27.1133333 C5.04781622,27.1091236 5.4491475,27.0799004 5.8475,27.0258333 L5.92916667,27.0258333 L5.92916667,26.0108333 Z" id="Shape"></path>
                        <path d="M10.0533333,25.8825 L10.0533333,27.7666667 L8.67666667,27.7666667 L8.67666667,23.0066667 L11.3833333,23.0066667 C12.8416667,23.0377778 13.5708333,23.4519444 13.5708333,24.2491667 C13.5708333,24.8791667 13.1391667,25.2641667 12.2816667,25.4158333 L12.2816667,25.4566667 C12.8709702,25.4461279 13.3643388,25.9009521 13.4016667,26.4891667 C13.4019784,26.5479587 13.4159576,26.6058728 13.4425,26.6583333 C13.4388837,27.0564297 13.5591597,27.4457977 13.7866667,27.7725 L12.3283333,27.7725 C12.184962,27.3568314 12.1024417,26.9226175 12.0833333,26.4833333 C12.0308333,26.0808333 11.8441667,25.9 11.5291667,25.9 L10.0533333,25.8825 Z M10.0533333,23.8175 L10.0533333,25.0833333 L11.1675,25.0833333 C11.7975,25.0833333 12.1241667,24.8675 12.1533333,24.4358333 C12.1825,24.0041667 11.7975,23.8525 11.1675,23.8525 L10.0533333,23.8175 Z" id="Shape"></path>
                        <polygon id="Shape" points="14.685 27.7666667 14.685 23.0066667 18.9316667 23.0066667 18.9316667 23.8175 16.0616667 23.8175 16.0616667 24.9375 18.7216667 24.9375 18.7216667 25.7075 16.0616667 25.7075 16.0616667 26.9966667 19.0191667 26.9966667 19.0191667 27.7666667"></polygon>
                        <path d="M21.0783333,27.7666667 L19.795,27.7666667 L22.0641667,23.0066667 L23.6975,23.0066667 L25.9316667,27.7666667 L24.555,27.7666667 L24.0825,26.7808333 L21.5508333,26.7808333 L21.0783333,27.7666667 Z M21.895,25.9641667 L23.75,25.9641667 L22.8925,23.9516667 L22.8516667,23.9516667 L21.895,25.9641667 Z" id="Shape"></path>
                        <polygon id="Shape" points="26.1416667 23.8175 26.1416667 23.0066667 31.2925 23.0066667 31.2925 23.8175 29.4025 23.8175 29.4025 27.7666667 28.0316667 27.7666667 28.0316667 23.8175"></polygon>
                        <polygon id="Shape" points="36.9566667 26.6116667 38.1991667 23.0066667 39.745 23.0066667 40.865 26.6116667 41.8916667 23.0066667 43.1808333 23.0066667 41.5475 27.7666667 40.0483333 27.7666667 38.9166667 24.1616667 37.6858333 27.7666667 36.14 27.7666667 34.5941667 23.0066667 36 23.0066667"></polygon>
                        <path d="M44.75,27.7666667 L43.4375,27.7666667 L45.7125,23.0066667 L47.34,23.0066667 L49.5741667,27.7666667 L48.1975,27.7666667 L47.7308333,26.7808333 L45.1933333,26.7808333 L44.75,27.7666667 Z M45.5608333,25.9641667 L47.41,25.9641667 L46.5525,23.9516667 L46.5,23.9516667 L45.5608333,25.9641667 Z" id="Shape"></path>
                        <polygon id="Shape" points="54.5091667 27.7666667 50.4258333 27.7666667 50.4258333 23.0066667 51.75 23.0066667 51.75 26.9966667 54.4975 26.9966667"></polygon>
                        <polygon id="Shape" points="59.5725 27.7666667 55.4891667 27.7666667 55.4891667 23.0066667 56.825 23.0066667 56.825 26.9966667 59.5725 26.9966667"></polygon>
                        <path d="M64.2508333,27.7666667 L62.9616667,27.7666667 L65.2366667,23.0066667 L66.8641667,23.0066667 L69.0983333,27.7666667 L67.7275,27.7666667 L67.255,26.7808333 L64.7233333,26.7808333 L64.2508333,27.7666667 Z M65.0616667,25.9641667 L66.9166667,25.9641667 L66.0591667,23.9516667 L66.0125,23.9516667 L65.0616667,25.9641667 Z" id="Shape"></path>
                        <path d="M74.1616667,23.0066667 L75.5325,23.0066667 L75.5325,26.0108333 C75.4819444,27.1775 74.5680556,27.7783333 72.7908333,27.8133333 C71.0136111,27.8483333 70.0822222,27.2475 69.9966667,26.0108333 L69.9966667,23.0066667 L71.3733333,23.0066667 L71.3733333,25.62 C71.2838889,26.6816667 71.7563889,27.1833333 72.7908333,27.125 C73.7591667,27.1833333 74.22,26.6816667 74.1616667,25.62 L74.1616667,23.0066667 Z" id="Shape"></path>
                        <polygon id="Shape" points="76.4775 23.8175 76.4775 23.0066667 81.6283333 23.0066667 81.6283333 23.8175 79.75 23.8175 79.75 27.7666667 78.3791667 27.7666667 78.3791667 23.8175"></polygon>
                        <path d="M85.2741667,27.8133333 C83.2733333,27.8133333 82.2583333,26.9791667 82.2291667,25.41 C82.2,23.8408333 83.2733333,22.9775 85.2741667,22.9191667 C87.2225,22.9775 88.22,23.8058333 88.2783333,25.41 C88.22,26.9791667 87.2225,27.7841667 85.2741667,27.8133333 Z M85.2741667,23.6483333 C84.1891667,23.6483333 83.6466667,24.2316667 83.6466667,25.3983333 C83.6466667,26.565 84.1891667,27.1483333 85.2741667,27.1133333 C86.3591667,27.0783333 86.8608333,26.53 86.8608333,25.3983333 C86.8608333,24.2666667 86.3358333,23.6483333 85.2741667,23.6483333 Z" id="Shape"></path>
                        <polygon id="Shape" points="93.5575 27.7666667 92.4433333 27.7666667 90.7691667 23.6833333 90.7283333 23.6833333 90.7283333 27.7666667 89.4391667 27.7666667 89.4391667 23.0066667 91.6675 23.0066667 92.9975 26.5066667 93.0441667 26.5066667 94.5025 23.0066667 96.6025 23.0066667 96.6025 27.7666667 95.36 27.7666667 95.36 23.6833333"></polygon>
                        <path d="M100.855,27.8133333 C98.8483333,27.8133333 97.8333333,26.9791667 97.8041667,25.41 C97.775,23.8408333 98.8483333,22.9775 100.855,22.9191667 C102.7975,22.9775 103.771667,23.8058333 103.853333,25.41 C103.800833,26.9791667 102.7975,27.7841667 100.855,27.8133333 Z M100.855,23.6483333 C99.7641667,23.6483333 99.2216667,24.2316667 99.2216667,25.3983333 C99.2216667,26.565 99.7641667,27.1483333 100.855,27.1133333 C101.945833,27.0783333 102.441667,26.53 102.441667,25.3983333 C102.441667,24.2666667 101.916667,23.6483333 100.855,23.6483333 Z" id="Shape"></path>
                        <polygon id="Shape" points="104.500833 23.8175 104.500833 23.0066667 109.651667 23.0066667 109.651667 23.8175 107.75 23.8175 107.75 27.7666667 106.379167 27.7666667 106.379167 23.8175"></polygon>
                        <polygon id="Shape" points="111.833333 23.0066667 111.833333 27.7666667 110.456667 27.7666667 110.456667 23.0066667"></polygon>
                        <polygon id="Shape" points="114.925 27.7666667 112.591667 23.0066667 114.05 23.0066667 115.724167 26.7808333 117.398333 23.0066667 118.728333 23.0066667 116.395 27.7666667"></polygon>
                        <polygon id="Shape" points="119.475 27.7666667 119.475 23.0066667 123.721667 23.0066667 123.721667 23.8175 120.851667 23.8175 120.851667 24.9375 123.5 24.9375 123.5 25.7075 120.84 25.7075 120.84 26.9966667 123.7975 26.9966667 123.7975 27.7666667"></polygon>
                        <polygon id="Shape" points="129.601667 27.7666667 128.271667 27.7666667 128.271667 23.0066667 132.355 23.0066667 132.355 23.8175 129.6075 23.8175 129.6075 24.9375 132.185833 24.9375 132.185833 25.7541667 129.6075 25.7541667"></polygon>
                        <polygon id="Shape" points="134.624167 23.0066667 134.624167 27.7666667 133.253333 27.7666667 133.253333 23.0066667"></polygon>
                        <polygon id="Shape" points="141.705833 27.7666667 139.775 27.7666667 137.284167 23.8175 137.243333 23.8175 137.243333 27.7666667 135.995 27.7666667 135.995 23.0066667 138.013333 23.0066667 140.416667 26.7808333 140.4575 26.74 140.4575 23.0066667 141.705833 23.0066667"></polygon>
                        <path d="M143.805833,27.7666667 L142.516667,27.7666667 L144.791667,23.0066667 L146.425,23.0066667 L148.653333,27.7666667 L147.2825,27.7666667 L146.833333,26.7808333 L144.301667,26.7808333 L143.805833,27.7666667 Z M144.6225,25.9641667 L146.465833,25.9641667 L145.608333,23.9516667 L145.5675,23.9516667 L144.6225,25.9641667 Z" id="Shape"></path>
                        <polygon id="Shape" points="155.180833 27.7666667 153.25 27.7666667 150.759167 23.8175 150.718333 23.8175 150.718333 27.7666667 149.47 27.7666667 149.47 23.0066667 151.5 23.0066667 153.903333 26.7808333 153.944167 26.74 153.944167 23.0066667 155.1925 23.0066667"></polygon>
                        <path d="M161.574167,24.5525 L160.156667,24.5525 C160.098333,23.9691667 159.684167,23.6775 158.914167,23.6483333 C158.144167,23.6191667 157.7475,24.2666667 157.7125,25.3983333 C157.6775,26.53 158.138333,27.1133333 158.914167,27.1133333 C159.69,27.1133333 160.080833,26.81 160.156667,26.2091667 L161.574167,26.2091667 C161.488611,27.2708333 160.601944,27.8016667 158.914167,27.8016667 C157.193333,27.8016667 156.306667,26.9675 156.248333,25.3983333 C156.306667,23.7961111 157.195278,22.9658333 158.914167,22.9075 C160.5825,22.9463889 161.469167,23.4947222 161.574167,24.5525 Z" id="Shape"></path>
                        <polygon id="Shape" points="162.4725 27.7666667 162.4725 23.0066667 166.719167 23.0066667 166.719167 23.8175 163.849167 23.8175 163.849167 24.9375 166.509167 24.9375 166.509167 25.7075 163.849167 25.7075 163.849167 26.9966667 166.806667 26.9966667 166.806667 27.7666667"></polygon>
                        <rect id="Rectangle-path" x="1" y="7.25666667" width="23.1991667" height="2.52583333"></rect>
                        <path d="M7.55666667,0.175 L7.55666667,14.7583333 C7.55666667,15.015 7.55666667,15.3066667 8.14,15.3066667 L12.6666667,15.3066667 L12.6666667,17.675 L5.61416667,17.675 C4.6225,17.675 3.53166667,17.0916667 3.53166667,15.8841667 L3.53166667,0.175 L7.55666667,0.175 Z" id="Shape"></path>
                        <path d="M8.81666667,3.35416667 L6.73416667,3.35416667 L6.73416667,5.75166667 L9.23666667,5.75166667 C18.8033333,5.75166667 21.8775,2.61333333 24.0941667,0.233333333 C22.9275,0.233333333 20.5941667,0.233333333 19.62,0.233333333 C17.38,1.925 15,3.35416667 8.81666667,3.35416667 Z" id="Shape"></path>
                        <path d="M21.5625,15.1666667 C20.6933333,15.1666667 20.0458333,15.1958333 19.2816667,14.0583333 C18.2725,12.5766667 16.9483333,10.5583333 15.5075,8.42916667 L11.1733333,8.42916667 C12.8591667,10.9725 14.3233333,13.1658333 15.7175,15.2483333 C17.3275,17.6516667 18.6866667,17.6516667 20.3316667,17.6516667 L24.1058333,17.6516667 L24.1058333,15.1666667 L21.5625,15.1666667 Z" id="Shape"></path>
                        <path d="M121.2775,11.9233333 C121.572031,13.1643808 121.753605,14.4295441 121.82,15.7033333 L118.506667,15.7033333 C118.379259,14.4309514 118.168811,13.1682591 117.876667,11.9233333 L121.2775,11.9233333 Z" id="Shape"></path>
                        <path d="M131.83,11.9233333 C131.538763,13.1650044 131.357231,14.429872 131.2875,15.7033333 L134.583333,15.7033333 C134.710531,14.4313074 134.919013,13.1687266 135.2075,11.9233333 L131.83,11.9233333 Z" id="Shape"></path>
                        <path d="M115.0125,2.39166667 L116.045,2.39166667 C116.656541,2.53437568 117.297664,2.33847696 117.725,1.87833333 L119.276667,0.0641666667 L133.895,0.0641666667 L135.580833,1.75 C136.148483,2.13843553 136.831671,2.32157911 137.5175,2.26916667 L138.299167,2.26916667 L138.299167,4.6025 L135.166667,4.6025 C134.046925,4.76925423 132.93328,4.26491897 132.32,3.31333333 L131.439167,2.39166667 L121.866667,2.39166667 L120.315,3.815 C119.883333,4.50916667 118.973333,4.80666667 117.596667,4.725 L115.0125,4.725 L115.0125,2.39166667 Z" id="Shape"></path>
                        <polygon id="Shape" points="115.525833 7.56583333 115.525833 5.36666667 137.78 5.36666667 137.78 7.56583333 128.5925 7.56583333 128.5925 8.7325 137.78 8.7325 137.78 10.8033333 128.464167 10.8033333 128.464167 15.7208333 138.299167 15.7208333 138.299167 17.7858333 115.140833 17.7858333 115.140833 15.7208333 124.841667 15.7208333 124.841667 10.9316667 115.525833 10.9316667 115.525833 8.7325 124.713333 8.7325 124.713333 7.56583333"></polygon>
                        <path d="M143.298333,8.27166667 L143.298333,17.6516667 L146.74,17.6516667 L146.74,14.7058333 L148.105,14.7058333 L148.105,17.6516667 L151.36,17.6516667 L151.36,14.7058333 L152.83,14.7058333 L152.83,15.4058333 C152.83,15.68 152.701667,15.9308333 152.334167,15.9133333 L152.334167,17.6633333 L154.171667,17.6633333 C154.990611,17.6709603 155.687657,17.0688528 155.799167,16.2575 L155.799167,8.27166667 L143.298333,8.27166667 Z M152.83,12.5825 L151.8325,12.5825 L152.596667,10.535 L150.5725,10.535 L149.860833,12.5825 L149.5225,12.5825 L148.939167,10.535 L147.049167,10.535 L147.574167,12.5825 L146.763333,12.5825 L146.763333,10.2783333 L152.853333,10.2783333 L152.83,12.5825 Z" id="Shape"></path>
                        <path d="M143.770833,3.24333333 L143.770833,7.58333333 L153.384167,7.58333333 C154.2475,7.58333333 155.011667,7.39083333 155.326667,6.74333333 C155.41808,6.61897752 155.47266,6.47141024 155.484167,6.3175 L155.484167,3.24333333 L143.770833,3.24333333 Z M152.83,5.4075 C152.837159,5.47648123 152.813263,5.54507249 152.76479,5.59467199 C152.716318,5.64427148 152.648294,5.66973858 152.579167,5.66416667 L146.780833,5.66416667 L146.780833,4.87083333 L152.83,4.87083333 L152.83,5.4075 Z" id="Shape"></path>
                        <path d="M164.753333,13.4575 L164.753333,15.0383333 L163.195833,15.0383333 L163.195833,12.9908333 L165.068333,12.9908333 C165.700239,12.9386848 166.276766,12.6098509 166.643333,12.0925 C166.709371,12.009585 166.762473,11.9171483 166.800833,11.8183333 L166.800833,1.21916667 L163.195833,1.21916667 L163.195833,0.204166667 L160.25,0.204166667 L160.25,1.21916667 L156.8725,1.21916667 L156.8725,12.9908333 L160.25,12.9908333 L160.25,14.98 L156.691667,14.98 L156.691667,17.6108333 L165.144167,17.6108333 C165.883624,17.4863275 166.526996,17.0338231 166.894167,16.38 C166.959451,16.2376431 167.002722,16.086192 167.0225,15.9308333 L167.0225,13.4575 L164.753333,13.4575 Z M160.25,10.3191667 L159.170833,10.3191667 L159.170833,4.08333333 L160.25,4.08333333 L160.25,10.3191667 Z M163.166667,4.08333333 L164.251667,4.08333333 L164.251667,9.96333333 C164.250202,10.0598015 164.209629,10.1515401 164.139243,10.2175263 C164.068858,10.2835124 163.974695,10.3180893 163.878333,10.3133333 L163.178333,10.3133333 C163.178333,10.3133333 163.166667,4.08333333 163.166667,4.08333333 Z" id="Shape"></path>
                        <rect id="Rectangle-path" x="143.438333" y="0.4725" width="12.5241667" height="2.15833333"></rect>
                        <path d="M37.3416667,1.67416667 L45.7708333,1.67416667 L45.7708333,0.1225 L49.0841667,0.1225 L49.0841667,1.67416667 L49.8541667,1.67416667 C50.28,1.67416667 50.49,1.505 50.49,1.16083333 L50.49,0.77 L52.9166667,0.77 L52.9166667,2.45583333 C52.9983333,3.49027778 52.3605556,3.96277778 51.0033333,3.87333333 L49.0841667,3.87333333 L49.0841667,12.04 L49.3408333,12.04 C49.5975,12.1216667 49.7258333,11.9525 49.7258333,11.5208333 L49.7258333,5.04 L52.275,5.04 L52.275,12.4133333 C52.3625,13.8833333 51.6916667,14.5308333 50.3616667,14.3558333 L49.0841667,14.3558333 L49.0841667,14.8691667 C49.0636433,15.0453437 49.124391,15.2212882 49.2492406,15.3472728 C49.3740902,15.4732574 49.5494778,15.5355949 49.7258333,15.5166667 L52.4033333,15.5166667 L52.4033333,17.4591667 L48.32,17.4591667 C46.36,17.6341667 45.5141667,16.94 45.7708333,15.3883333 L45.7708333,3.87333333 L40.6666667,3.87333333 L40.6666667,5.29666667 L44.8783333,5.29666667 L44.8783333,15.7966667 C45.0494444,17.0061111 44.3261111,17.5661111 42.7083333,17.4766667 L40.6666667,17.4766667 L40.6666667,16.31 C40.585,17.3483333 40.1591667,17.8208333 39.395,17.7333333 L29.3033333,17.7333333 L29.3033333,15.925 L31.0883333,15.925 L31.0883333,4.0075 L29.3033333,4.0075 L29.3033333,1.80833333 L31.0883333,1.80833333 L31.0883333,0.385 L34.5358333,0.385 L34.5358333,1.80833333 L36.1983333,1.80833333 L36.1983333,4.0075 L34.5358333,4.0075 L34.5358333,15.7791667 L36.5833333,15.7791667 C37.1666667,15.8666667 37.435,15.6508333 37.3475,15.1316667 L37.3416667,1.67416667 Z M41.1741667,15.6741667 C41.5125,15.7558333 41.6816667,15.6275 41.6816667,15.2833333 L41.6816667,7.49583333 L40.6666667,7.49583333 L40.6666667,15.6625 L41.1741667,15.6741667 Z" id="Shape"></path>
                        <path d="M65.925,12.0283333 L64.14,16.17 C63.9005852,17.1392023 62.9543497,17.7598514 61.97,17.5933333 L57.8866667,17.5933333 L57.8866667,15.6508333 L59.8058333,15.6508333 C60.1549854,15.7031223 60.4863866,15.4805016 60.57,15.1375 L61.7366667,12.0283333 L65.925,12.0283333 Z M58.0091667,0 L62.0925,0 L63.1133333,2.45583333 C63.1133333,2.89333333 63.3233333,3.03916667 63.7491667,2.975 L65.1666667,2.975 L65.1666667,5.17416667 L61.9758333,5.17416667 C60.5291667,5.25972222 59.7202778,4.91555556 59.5491667,4.14166667 L58.0091667,0 Z M58.0091667,5.95 L61.97,5.95 L62.9908333,8.54 C63.0037597,8.68624706 63.085598,8.81758276 63.2111867,8.89362729 C63.3367754,8.96967182 63.4910829,8.98132352 63.6266667,8.925 L65.1666667,8.925 L65.1666667,10.9958333 L61.8416667,10.9958333 C60.3075,11.1708333 59.4558333,10.78 59.2866667,9.82916667 L58.0091667,5.95 Z M65.7966667,3.61666667 L65.7966667,1.55166667 L67.5816667,1.55166667 C67.9276009,1.58771223 68.2675267,1.44202974 68.48,1.16666667 L69.25,0 L73.205,0 L72.82,0.775833333 L81.3775,0.775833333 L81.3775,3.23166667 L71.2858333,3.23166667 C70.7667392,3.4755625 70.2025361,3.60866675 69.6291667,3.6225 L65.7966667,3.61666667 Z M66.0533333,6.72 L66.0533333,4.38666667 L81.22,4.38666667 L81.22,6.72 L66.0533333,6.72 Z M66.0533333,15.645 L75.2408333,10.0858333 L66.0533333,10.0858333 L66.0533333,7.8925 L81.22,7.8925 L81.22,10.0916667 L71.8866667,15.6508333 L81.22,15.6508333 L81.22,17.85 L66.0533333,17.85 L66.0533333,15.645 Z" id="Shape"></path>
                        <polygon id="Shape" points="86.715 0.904166667 91.055 0.904166667 91.6966667 0.128333333 96.5441667 0.128333333 96.0308333 0.904166667 109.6925 0.904166667 109.6925 4.01333333 94.5258333 4.01333333 91.9708333 7.76416667 96.3108333 7.76416667 96.3108333 5.17416667 101.035833 5.17416667 101.035833 7.76416667 109.715833 7.76416667 109.715833 10.6108333 101.0125 10.6108333 101.0125 13.0666667 109.564167 13.0666667 109.564167 15.9133333 101.0125 15.9133333 101.0125 17.7216667 96.2875 17.7216667 96.2875 15.9133333 86.5866667 15.9133333 86.5866667 13.0666667 96.2875 13.0666667 96.2875 10.6108333 86.715 10.6108333 86.715 7.8925 89.3983333 4.01333333 86.715 4.01333333"></polygon>
                    </g>
                </g>
            </g>
        </g>
    </g>
</svg>