<?xml version="1.0" encoding="UTF-8"?>
<svg width="240px" height="40px" viewBox="0 0 240 40" version="1.1" xmlns="http://www.w3.org/2000/svg" xmlns:xlink="http://www.w3.org/1999/xlink">
    <!-- Generator: Sketch 50.2 (55047) - http://www.bohemiancoding.com/sketch -->
    <title>logo@2x</title>
    <desc>Created with Sketch.</desc>
    <defs></defs>
    <g id="登陆1.4" stroke="none" stroke-width="1" fill="none" fill-rule="evenodd">
        <g id="2_登陆错误" transform="translate(-120.000000, -50.000000)" fill="#FFFFFF" fill-rule="nonzero">
            <g id="logo" transform="translate(120.000000, 50.000000)">
                <path d="M8.4702381,37.1583333 L6.6952381,37.1583333 L6.6952381,36.05 L10.3785714,36.05 L10.3785714,39.4833333 C9.71081171,39.6077939 9.03282631,39.6691753 8.35357143,39.6666667 C7.8202381,39.6666667 7.1452381,39.7333333 6.32857143,39.7333333 C3.5452381,39.65 2.16190476,38.5 2.03690476,36.3 C2.1202381,34.0916667 3.5452381,32.9083333 6.32857143,32.7416667 C9.10634921,32.7416667 10.4952381,33.4777778 10.4952381,34.95 L8.4702381,34.95 C8.4702381,34.175 7.86190476,33.7833333 6.63690476,33.7833333 C4.9702381,33.8277778 4.13690476,34.6611111 4.13690476,36.2833333 C4.13690476,37.95 4.9702381,38.7333333 6.63690476,38.7333333 C7.21116603,38.7273194 7.78449643,38.685572 8.35357143,38.6083333 L8.4702381,38.6083333 L8.4702381,37.1583333 Z" id="Shape"></path>
                <path d="M14.3619048,36.975 L14.3619048,39.6666667 L12.3952381,39.6666667 L12.3952381,32.8666667 L16.2619048,32.8666667 C18.3452381,32.9111111 19.3869048,33.5027778 19.3869048,34.6416667 C19.3869048,35.5416667 18.7702381,36.0916667 17.5452381,36.3083333 L17.5452381,36.3666667 C18.3871002,36.3516113 19.0919126,37.0013602 19.1452381,37.8416667 C19.1456834,37.9256553 19.1656538,38.0083898 19.2035714,38.0833333 C19.1984053,38.6520424 19.3702282,39.2082824 19.6952381,39.675 L17.6119048,39.675 C17.4070886,39.0811877 17.2892025,38.4608822 17.2619048,37.8333333 C17.1869048,37.2583333 16.9202381,37 16.4702381,37 L14.3619048,36.975 Z M14.3619048,34.025 L14.3619048,35.8333333 L15.9535714,35.8333333 C16.8535714,35.8333333 17.3202381,35.525 17.3619048,34.9083333 C17.4035714,34.2916667 16.8535714,34.075 15.9535714,34.075 L14.3619048,34.025 Z" id="Shape"></path>
                <polygon id="Shape" points="20.9785714 39.6666667 20.9785714 32.8666667 27.0452381 32.8666667 27.0452381 34.025 22.9452381 34.025 22.9452381 35.625 26.7452381 35.625 26.7452381 36.725 22.9452381 36.725 22.9452381 38.5666667 27.1702381 38.5666667 27.1702381 39.6666667"></polygon>
                <path d="M30.1119048,39.6666667 L28.2785714,39.6666667 L31.5202381,32.8666667 L33.8535714,32.8666667 L37.0452381,39.6666667 L35.0785714,39.6666667 L34.4035714,38.2583333 L30.7869048,38.2583333 L30.1119048,39.6666667 Z M31.2785714,37.0916667 L33.9285714,37.0916667 L32.7035714,34.2166667 L32.6452381,34.2166667 L31.2785714,37.0916667 Z" id="Shape"></path>
                <polygon id="Shape" points="37.3452381 34.025 37.3452381 32.8666667 44.7035714 32.8666667 44.7035714 34.025 42.0035714 34.025 42.0035714 39.6666667 40.0452381 39.6666667 40.0452381 34.025"></polygon>
                <polygon id="Shape" points="52.7952381 38.0166667 54.5702381 32.8666667 56.7785714 32.8666667 58.3785714 38.0166667 59.8452381 32.8666667 61.6869048 32.8666667 59.3535714 39.6666667 57.2119048 39.6666667 55.5952381 34.5166667 53.8369048 39.6666667 51.6285714 39.6666667 49.4202381 32.8666667 51.4285714 32.8666667"></polygon>
                <path d="M63.9285714,39.6666667 L62.0535714,39.6666667 L65.3035714,32.8666667 L67.6285714,32.8666667 L70.8202381,39.6666667 L68.8535714,39.6666667 L68.1869048,38.2583333 L64.5619048,38.2583333 L63.9285714,39.6666667 Z M65.0869048,37.0916667 L67.7285714,37.0916667 L66.5035714,34.2166667 L66.4285714,34.2166667 L65.0869048,37.0916667 Z" id="Shape"></path>
                <polygon id="Shape" points="77.8702381 39.6666667 72.0369048 39.6666667 72.0369048 32.8666667 73.9285714 32.8666667 73.9285714 38.5666667 77.8535714 38.5666667"></polygon>
                <polygon id="Shape" points="85.1035714 39.6666667 79.2702381 39.6666667 79.2702381 32.8666667 81.1785714 32.8666667 81.1785714 38.5666667 85.1035714 38.5666667"></polygon>
                <path d="M91.7869048,39.6666667 L89.9452381,39.6666667 L93.1952381,32.8666667 L95.5202381,32.8666667 L98.7119048,39.6666667 L96.7535714,39.6666667 L96.0785714,38.2583333 L92.4619048,38.2583333 L91.7869048,39.6666667 Z M92.9452381,37.0916667 L95.5952381,37.0916667 L94.3702381,34.2166667 L94.3035714,34.2166667 L92.9452381,37.0916667 Z" id="Shape"></path>
                <path d="M105.945238,32.8666667 L107.903571,32.8666667 L107.903571,37.1583333 C107.831349,38.825 106.525794,39.6833333 103.986905,39.7333333 C101.448016,39.7833333 100.11746,38.925 99.9952381,37.1583333 L99.9952381,32.8666667 L101.961905,32.8666667 L101.961905,36.6 C101.834127,38.1166667 102.509127,38.8333333 103.986905,38.75 C105.370238,38.8333333 106.028571,38.1166667 105.945238,36.6 L105.945238,32.8666667 Z" id="Shape"></path>
                <polygon id="Shape" points="109.253571 34.025 109.253571 32.8666667 116.611905 32.8666667 116.611905 34.025 113.928571 34.025 113.928571 39.6666667 111.970238 39.6666667 111.970238 34.025"></polygon>
                <path d="M121.820238,39.7333333 C118.961905,39.7333333 117.511905,38.5416667 117.470238,36.3 C117.428571,34.0583333 118.961905,32.825 121.820238,32.7416667 C124.603571,32.825 126.028571,34.0083333 126.111905,36.3 C126.028571,38.5416667 124.603571,39.6916667 121.820238,39.7333333 Z M121.820238,33.7833333 C120.270238,33.7833333 119.495238,34.6166667 119.495238,36.2833333 C119.495238,37.95 120.270238,38.7833333 121.820238,38.7333333 C123.370238,38.6833333 124.086905,37.9 124.086905,36.2833333 C124.086905,34.6666667 123.336905,33.7833333 121.820238,33.7833333 Z" id="Shape"></path>
                <polygon id="Shape" points="133.653571 39.6666667 132.061905 39.6666667 129.670238 33.8333333 129.611905 33.8333333 129.611905 39.6666667 127.770238 39.6666667 127.770238 32.8666667 130.953571 32.8666667 132.853571 37.8666667 132.920238 37.8666667 135.003571 32.8666667 138.003571 32.8666667 138.003571 39.6666667 136.228571 39.6666667 136.228571 33.8333333"></polygon>
                <path d="M144.078571,39.7333333 C141.211905,39.7333333 139.761905,38.5416667 139.720238,36.3 C139.678571,34.0583333 141.211905,32.825 144.078571,32.7416667 C146.853571,32.825 148.245238,34.0083333 148.361905,36.3 C148.286905,38.5416667 146.853571,39.6916667 144.078571,39.7333333 Z M144.078571,33.7833333 C142.520238,33.7833333 141.745238,34.6166667 141.745238,36.2833333 C141.745238,37.95 142.520238,38.7833333 144.078571,38.7333333 C145.636905,38.6833333 146.345238,37.9 146.345238,36.2833333 C146.345238,34.6666667 145.595238,33.7833333 144.078571,33.7833333 Z" id="Shape"></path>
                <polygon id="Shape" points="149.286905 34.025 149.286905 32.8666667 156.645238 32.8666667 156.645238 34.025 153.928571 34.025 153.928571 39.6666667 151.970238 39.6666667 151.970238 34.025"></polygon>
                <polygon id="Shape" points="159.761905 32.8666667 159.761905 39.6666667 157.795238 39.6666667 157.795238 32.8666667"></polygon>
                <polygon id="Shape" points="164.178571 39.6666667 160.845238 32.8666667 162.928571 32.8666667 165.320238 38.2583333 167.711905 32.8666667 169.611905 32.8666667 166.278571 39.6666667"></polygon>
                <polygon id="Shape" points="170.678571 39.6666667 170.678571 32.8666667 176.745238 32.8666667 176.745238 34.025 172.645238 34.025 172.645238 35.625 176.428571 35.625 176.428571 36.725 172.628571 36.725 172.628571 38.5666667 176.853571 38.5666667 176.853571 39.6666667"></polygon>
                <polygon id="Shape" points="185.145238 39.6666667 183.245238 39.6666667 183.245238 32.8666667 189.078571 32.8666667 189.078571 34.025 185.153571 34.025 185.153571 35.625 188.836905 35.625 188.836905 36.7916667 185.153571 36.7916667"></polygon>
                <polygon id="Shape" points="192.320238 32.8666667 192.320238 39.6666667 190.361905 39.6666667 190.361905 32.8666667"></polygon>
                <polygon id="Shape" points="202.436905 39.6666667 199.678571 39.6666667 196.120238 34.025 196.061905 34.025 196.061905 39.6666667 194.278571 39.6666667 194.278571 32.8666667 197.161905 32.8666667 200.595238 38.2583333 200.653571 38.2 200.653571 32.8666667 202.436905 32.8666667"></polygon>
                <path d="M205.436905,39.6666667 L203.595238,39.6666667 L206.845238,32.8666667 L209.178571,32.8666667 L212.361905,39.6666667 L210.403571,39.6666667 L209.761905,38.2583333 L206.145238,38.2583333 L205.436905,39.6666667 Z M206.603571,37.0916667 L209.236905,37.0916667 L208.011905,34.2166667 L207.953571,34.2166667 L206.603571,37.0916667 Z" id="Shape"></path>
                <polygon id="Shape" points="221.686905 39.6666667 218.928571 39.6666667 215.370238 34.025 215.311905 34.025 215.311905 39.6666667 213.528571 39.6666667 213.528571 32.8666667 216.428571 32.8666667 219.861905 38.2583333 219.920238 38.2 219.920238 32.8666667 221.703571 32.8666667"></polygon>
                <path d="M230.820238,35.075 L228.795238,35.075 C228.711905,34.2416667 228.120238,33.825 227.020238,33.7833333 C225.920238,33.7416667 225.353571,34.6666667 225.303571,36.2833333 C225.253571,37.9 225.911905,38.7333333 227.020238,38.7333333 C228.128571,38.7333333 228.686905,38.3 228.795238,37.4416667 L230.820238,37.4416667 C230.698016,38.9583333 229.431349,39.7166667 227.020238,39.7166667 C224.561905,39.7166667 223.295238,38.525 223.211905,36.2833333 C223.295238,33.9944444 224.564683,32.8083333 227.020238,32.725 C229.403571,32.7805556 230.670238,33.5638889 230.820238,35.075 Z" id="Shape"></path>
                <polygon id="Shape" points="232.103571 39.6666667 232.103571 32.8666667 238.170238 32.8666667 238.170238 34.025 234.070238 34.025 234.070238 35.625 237.870238 35.625 237.870238 36.725 234.070238 36.725 234.070238 38.5666667 238.295238 38.5666667 238.295238 39.6666667"></polygon>
                <rect id="Rectangle-path" x="1.42857143" y="10.3666667" width="33.1416667" height="3.60833333"></rect>
                <path d="M10.7952381,0.25 L10.7952381,21.0833333 C10.7952381,21.45 10.7952381,21.8666667 11.6285714,21.8666667 L18.0952381,21.8666667 L18.0952381,25.25 L8.0202381,25.25 C6.60357143,25.25 5.0452381,24.4166667 5.0452381,22.6916667 L5.0452381,0.25 L10.7952381,0.25 Z" id="Shape"></path>
                <path d="M12.5952381,4.79166667 L9.6202381,4.79166667 L9.6202381,8.21666667 L13.1952381,8.21666667 C26.8619048,8.21666667 31.2535714,3.73333333 34.4202381,0.333333333 C32.7535714,0.333333333 29.4202381,0.333333333 28.0285714,0.333333333 C24.8285714,2.75 21.4285714,4.79166667 12.5952381,4.79166667 Z" id="Shape"></path>
                <path d="M30.8035714,21.6666667 C29.5619048,21.6666667 28.6369048,21.7083333 27.5452381,20.0833333 C26.1035714,17.9666667 24.2119048,15.0833333 22.1535714,12.0416667 L15.9619048,12.0416667 C18.3702381,15.675 20.4619048,18.8083333 22.4535714,21.7833333 C24.7535714,25.2166667 26.6952381,25.2166667 29.0452381,25.2166667 L34.4369048,25.2166667 L34.4369048,21.6666667 L30.8035714,21.6666667 Z" id="Shape"></path>
                <path d="M173.253571,17.0333333 C173.67433,18.8062583 173.933722,20.6136345 174.028571,22.4333333 L169.295238,22.4333333 C169.113228,20.6156449 168.812587,18.8117987 168.395238,17.0333333 L173.253571,17.0333333 Z" id="Shape"></path>
                <path d="M188.328571,17.0333333 C187.912518,18.8071492 187.653187,20.6141029 187.553571,22.4333333 L192.261905,22.4333333 C192.443616,20.6161534 192.741447,18.8124666 193.153571,17.0333333 L188.328571,17.0333333 Z" id="Shape"></path>
                <path d="M164.303571,3.41666667 L165.778571,3.41666667 C166.652201,3.62053668 167.568091,3.34068138 168.178571,2.68333333 L170.395238,0.0916666667 L191.278571,0.0916666667 L193.686905,2.5 C194.497834,3.05490791 195.473815,3.31654159 196.453571,3.24166667 L197.570238,3.24166667 L197.570238,6.575 L193.095238,6.575 C191.495608,6.81322033 189.904686,6.09274138 189.028571,4.73333333 L187.770238,3.41666667 L174.095238,3.41666667 L171.878571,5.45 C171.261905,6.44166667 169.961905,6.86666667 167.995238,6.75 L164.303571,6.75 L164.303571,3.41666667 Z" id="Shape"></path>
                <polygon id="Shape" points="165.036905 10.8083333 165.036905 7.66666667 196.828571 7.66666667 196.828571 10.8083333 183.703571 10.8083333 183.703571 12.475 196.828571 12.475 196.828571 15.4333333 183.520238 15.4333333 183.520238 22.4583333 197.570238 22.4583333 197.570238 25.4083333 164.486905 25.4083333 164.486905 22.4583333 178.345238 22.4583333 178.345238 15.6166667 165.036905 15.6166667 165.036905 12.475 178.161905 12.475 178.161905 10.8083333"></polygon>
                <path d="M204.711905,11.8166667 L204.711905,25.2166667 L209.628571,25.2166667 L209.628571,21.0083333 L211.578571,21.0083333 L211.578571,25.2166667 L216.228571,25.2166667 L216.228571,21.0083333 L218.328571,21.0083333 L218.328571,22.0083333 C218.328571,22.4 218.145238,22.7583333 217.620238,22.7333333 L217.620238,25.2333333 L220.245238,25.2333333 C221.415158,25.244229 222.410938,24.3840755 222.570238,23.225 L222.570238,11.8166667 L204.711905,11.8166667 Z M218.328571,17.975 L216.903571,17.975 L217.995238,15.05 L215.103571,15.05 L214.086905,17.975 L213.603571,17.975 L212.770238,15.05 L210.070238,15.05 L210.820238,17.975 L209.661905,17.975 L209.661905,14.6833333 L218.361905,14.6833333 L218.328571,17.975 Z" id="Shape"></path>
                <path d="M205.386905,4.63333333 L205.386905,10.8333333 L219.120238,10.8333333 C220.353571,10.8333333 221.445238,10.5583333 221.895238,9.63333333 C222.025829,9.45568217 222.1038,9.24487178 222.120238,9.025 L222.120238,4.63333333 L205.386905,4.63333333 Z M218.328571,7.725 C218.338799,7.82354462 218.304661,7.92153213 218.235415,7.99238855 C218.166169,8.06324497 218.068992,8.09962654 217.970238,8.09166667 L209.686905,8.09166667 L209.686905,6.95833333 L218.328571,6.95833333 L218.328571,7.725 Z" id="Shape"></path>
                <path d="M235.361905,19.225 L235.361905,21.4833333 L233.136905,21.4833333 L233.136905,18.5583333 L235.811905,18.5583333 C236.714627,18.4838354 237.538237,18.0140727 238.061905,17.275 C238.156245,17.15655 238.232104,17.0244976 238.286905,16.8833333 L238.286905,1.74166667 L233.136905,1.74166667 L233.136905,0.291666667 L228.928571,0.291666667 L228.928571,1.74166667 L224.103571,1.74166667 L224.103571,18.5583333 L228.928571,18.5583333 L228.928571,21.4 L223.845238,21.4 L223.845238,25.1583333 L235.920238,25.1583333 C236.976606,24.9804679 237.895708,24.334033 238.420238,23.4 C238.513501,23.196633 238.575318,22.9802743 238.603571,22.7583333 L238.603571,19.225 L235.361905,19.225 Z M228.928571,14.7416667 L227.386905,14.7416667 L227.386905,5.83333333 L228.928571,5.83333333 L228.928571,14.7416667 Z M233.095238,5.83333333 L234.645238,5.83333333 L234.645238,14.2333333 C234.643146,14.371145 234.585184,14.5022001 234.484633,14.5964661 C234.384083,14.690732 234.249565,14.7401276 234.111905,14.7333333 L233.111905,14.7333333 C233.111905,14.7333333 233.095238,5.83333333 233.095238,5.83333333 Z" id="Shape"></path>
                <rect id="Rectangle-path" x="204.911905" y="0.675" width="17.8916667" height="3.08333333"></rect>
                <path d="M53.3452381,2.39166667 L65.3869048,2.39166667 L65.3869048,0.175 L70.1202381,0.175 L70.1202381,2.39166667 L71.2202381,2.39166667 C71.8285714,2.39166667 72.1285714,2.15 72.1285714,1.65833333 L72.1285714,1.1 L75.5952381,1.1 L75.5952381,3.50833333 C75.7119048,4.98611111 74.8007937,5.66111111 72.8619048,5.53333333 L70.1202381,5.53333333 L70.1202381,17.2 L70.4869048,17.2 C70.8535714,17.3166667 71.0369048,17.075 71.0369048,16.4583333 L71.0369048,7.2 L74.6785714,7.2 L74.6785714,17.7333333 C74.8035714,19.8333333 73.8452381,20.7583333 71.9452381,20.5083333 L70.1202381,20.5083333 L70.1202381,21.2416667 C70.090919,21.4933481 70.1777014,21.7446974 70.356058,21.9246755 C70.5344146,22.1046535 70.7849683,22.193707 71.0369048,22.1666667 L74.8619048,22.1666667 L74.8619048,24.9416667 L69.0285714,24.9416667 C66.2285714,25.1916667 65.0202381,24.2 65.3869048,21.9833333 L65.3869048,5.53333333 L58.0952381,5.53333333 L58.0952381,7.56666667 L64.1119048,7.56666667 L64.1119048,22.5666667 C64.3563492,24.2944444 63.3230159,25.0944444 61.0119048,24.9666667 L58.0952381,24.9666667 L58.0952381,23.3 C57.9785714,24.7833333 57.3702381,25.4583333 56.2785714,25.3333333 L41.8619048,25.3333333 L41.8619048,22.75 L44.4119048,22.75 L44.4119048,5.725 L41.8619048,5.725 L41.8619048,2.58333333 L44.4119048,2.58333333 L44.4119048,0.55 L49.3369048,0.55 L49.3369048,2.58333333 L51.7119048,2.58333333 L51.7119048,5.725 L49.3369048,5.725 L49.3369048,22.5416667 L52.2619048,22.5416667 C53.0952381,22.6666667 53.4785714,22.3583333 53.3535714,21.6166667 L53.3452381,2.39166667 Z M58.8202381,22.3916667 C59.3035714,22.5083333 59.5452381,22.325 59.5452381,21.8333333 L59.5452381,10.7083333 L58.0952381,10.7083333 L58.0952381,22.375 L58.8202381,22.3916667 Z" id="Shape"></path>
                <path d="M94.1785714,17.1833333 L91.6285714,23.1 C91.2865503,24.4845747 89.9347852,25.3712164 88.5285714,25.1333333 L82.6952381,25.1333333 L82.6952381,22.3583333 L85.4369048,22.3583333 C85.9356935,22.4330318 86.4091237,22.1150023 86.5285714,21.625 L88.1952381,17.1833333 L94.1785714,17.1833333 Z M82.8702381,0 L88.7035714,0 L90.1619048,3.50833333 C90.1619048,4.13333333 90.4619048,4.34166667 91.0702381,4.25 L93.0952381,4.25 L93.0952381,7.39166667 L88.5369048,7.39166667 C86.4702381,7.51388889 85.3146825,7.02222222 85.0702381,5.91666667 L82.8702381,0 Z M82.8702381,8.5 L88.5285714,8.5 L89.9869048,12.2 C90.005371,12.4089244 90.1222828,12.5965468 90.3016953,12.7051818 C90.4811077,12.8138169 90.701547,12.8304622 90.8952381,12.75 L93.0952381,12.75 L93.0952381,15.7083333 L88.3452381,15.7083333 C86.1535714,15.9583333 84.9369048,15.4 84.6952381,14.0416667 L82.8702381,8.5 Z M93.9952381,5.16666667 L93.9952381,2.21666667 L96.5452381,2.21666667 C97.0394298,2.26816033 97.5250381,2.06004249 97.8285714,1.66666667 L98.9285714,0 L104.578571,0 L104.028571,1.10833333 L116.253571,1.10833333 L116.253571,4.61666667 L101.836905,4.61666667 C101.095342,4.96508929 100.289337,5.15523821 99.4702381,5.175 L93.9952381,5.16666667 Z M94.3619048,9.6 L94.3619048,6.26666667 L116.028571,6.26666667 L116.028571,9.6 L94.3619048,9.6 Z M94.3619048,22.35 L107.486905,14.4083333 L94.3619048,14.4083333 L94.3619048,11.275 L116.028571,11.275 L116.028571,14.4166667 L102.695238,22.3583333 L116.028571,22.3583333 L116.028571,25.5 L94.3619048,25.5 L94.3619048,22.35 Z" id="Shape"></path>
                <polygon id="Shape" points="123.878571 1.29166667 130.078571 1.29166667 130.995238 0.183333333 137.920238 0.183333333 137.186905 1.29166667 156.703571 1.29166667 156.703571 5.73333333 135.036905 5.73333333 131.386905 11.0916667 137.586905 11.0916667 137.586905 7.39166667 144.336905 7.39166667 144.336905 11.0916667 156.736905 11.0916667 156.736905 15.1583333 144.303571 15.1583333 144.303571 18.6666667 156.520238 18.6666667 156.520238 22.7333333 144.303571 22.7333333 144.303571 25.3166667 137.553571 25.3166667 137.553571 22.7333333 123.695238 22.7333333 123.695238 18.6666667 137.553571 18.6666667 137.553571 15.1583333 123.878571 15.1583333 123.878571 11.275 127.711905 5.73333333 123.878571 5.73333333"></polygon>
            </g>
        </g>
    </g>
</svg>